<svg xmlns="http://www.w3.org/2000/svg" width="119.217" height="43.415" viewBox="0 0 119.217 43.415">
  <g id="logo" transform="translate(5177 -6234.079)">
    <path id="Path_5689" data-name="Path 5689" d="M1.95,0V-18H8.525a8.829,8.829,0,0,1,2.887.4,4.466,4.466,0,0,1,1.8,1.1,3.873,3.873,0,0,1,.925,1.613,6.884,6.884,0,0,1,.262,1.913,4.578,4.578,0,0,1-.612,2.475A4.521,4.521,0,0,1,12.2-8.962a6.838,6.838,0,0,1-2.212.787A13.878,13.878,0,0,1,7.5-7.95H3.65V0Zm5.6-9.4A13.882,13.882,0,0,0,9.7-9.55a4.288,4.288,0,0,0,1.612-.562,2.786,2.786,0,0,0,1.025-1.125A4.116,4.116,0,0,0,12.7-13.1a3.078,3.078,0,0,0-1.113-2.575A5.732,5.732,0,0,0,8.05-16.55H3.65V-9.4ZM17.075,0V-18h1.5v6.85a9.527,9.527,0,0,1,1.863-1.55,4.284,4.284,0,0,1,2.313-.6,5.9,5.9,0,0,1,2.225.413A3.8,3.8,0,0,1,26.7-11.45a3.224,3.224,0,0,1,.563,1.438,13.051,13.051,0,0,1,.087,1.538V0h-1.5V-8.45a3.858,3.858,0,0,0-.775-2.625A3.291,3.291,0,0,0,22.5-11.95a3.654,3.654,0,0,0-1.275.212,4.012,4.012,0,0,0-1.038.563,3.768,3.768,0,0,0-.788.8,3.712,3.712,0,0,0-.5.95,4.768,4.768,0,0,0-.275,1.2q-.05.575-.05,1.25V0ZM31.2,0V-18h1.5V0ZM41.675.35A6.741,6.741,0,0,1,39.337-.1a5.235,5.235,0,0,1-1.9-1.275A6.121,6.121,0,0,1,36.15-3.5a8.505,8.505,0,0,1-.475-2.975,9.138,9.138,0,0,1,.375-2.662A6.287,6.287,0,0,1,37.175-11.3a5.339,5.339,0,0,1,1.875-1.463,6.027,6.027,0,0,1,2.625-.537,6.089,6.089,0,0,1,2.65.537,5.4,5.4,0,0,1,1.875,1.45A5.985,5.985,0,0,1,47.313-9.15a9.563,9.563,0,0,1,.362,2.675,8.664,8.664,0,0,1-.425,2.8,6.3,6.3,0,0,1-1.213,2.15,5.339,5.339,0,0,1-1.9,1.387A6.07,6.07,0,0,1,41.675.35Zm4.4-6.825a8.844,8.844,0,0,0-.25-2.15,5.093,5.093,0,0,0-.775-1.738,3.723,3.723,0,0,0-1.35-1.162,4.385,4.385,0,0,0-2.025-.425,4.1,4.1,0,0,0-2.013.462A3.939,3.939,0,0,0,38.3-10.262a5.386,5.386,0,0,0-.775,1.75,8.27,8.27,0,0,0-.25,2.037,8.078,8.078,0,0,0,.288,2.213A5.187,5.187,0,0,0,38.4-2.525,3.761,3.761,0,0,0,39.775-1.4a4.3,4.3,0,0,0,1.9.4,4.1,4.1,0,0,0,2.013-.462A3.892,3.892,0,0,0,45.05-2.7a5.549,5.549,0,0,0,.775-1.75A8.121,8.121,0,0,0,46.075-6.475Zm8.85.875L50.9,0H49.075L54.05-6.7l-4.575-6.25h1.85L54.9-7.8l3.675-5.15h1.9L55.8-6.7,60.65,0h-1.8ZM9.546,18.53H5.725V25H1.99V7.007H9.827A6.383,6.383,0,0,1,14.148,8.4a5.392,5.392,0,0,1,1.611,4.309q0,3.186-1.611,4.5A7.1,7.1,0,0,1,9.546,18.53ZM11.3,14.783a2.6,2.6,0,0,0,.732-2.051,2.435,2.435,0,0,0-.739-2,3.205,3.205,0,0,0-2.069-.6h-3.5v5.3h3.5A3.062,3.062,0,0,0,11.3,14.783Zm7.068-7.776h3.479V25H18.372Zm7.373,6.128q1.379-1.758,4.736-1.758a8.415,8.415,0,0,1,3.882.867,3.327,3.327,0,0,1,1.7,3.271v6.1q0,.635.024,1.538a1.934,1.934,0,0,0,.208.928,1.247,1.247,0,0,0,.513.4V25H33.02a3.875,3.875,0,0,1-.22-.757q-.061-.354-.1-.806a7.148,7.148,0,0,1-1.66,1.331,4.994,4.994,0,0,1-2.539.647,4.365,4.365,0,0,1-2.985-1.031,3.679,3.679,0,0,1-1.178-2.924,3.8,3.8,0,0,1,1.892-3.552,8.4,8.4,0,0,1,3.052-.854l1.184-.146a5.43,5.43,0,0,0,1.379-.305,1.046,1.046,0,0,0,.745-.989,1.173,1.173,0,0,0-.568-1.129,3.546,3.546,0,0,0-1.666-.311,2.171,2.171,0,0,0-1.746.61A2.537,2.537,0,0,0,28.125,16H24.768A5.106,5.106,0,0,1,25.745,13.135Zm2.588,9.351a1.818,1.818,0,0,0,1.2.4,3.543,3.543,0,0,0,2.069-.659,2.811,2.811,0,0,0,.983-2.4V18.53a3.781,3.781,0,0,1-.665.336,5.564,5.564,0,0,1-.922.238l-.781.146a5.045,5.045,0,0,0-1.575.476,1.6,1.6,0,0,0-.806,1.477A1.527,1.527,0,0,0,28.333,22.485ZM45.41,14.27a2.422,2.422,0,0,0-2.429,1.5,5.157,5.157,0,0,0-.342,2.026V25H39.172V11.719h3.357V13.66a5.906,5.906,0,0,1,1.27-1.477,4.412,4.412,0,0,1,2.722-.806,5.136,5.136,0,0,1,3.375,1.08,4.393,4.393,0,0,1,1.312,3.583V25H47.644V16.907a3.693,3.693,0,0,0-.281-1.611A1.975,1.975,0,0,0,45.41,14.27Zm15.1,8.252v2.6l-1.648.061q-2.466.085-3.369-.854a2.544,2.544,0,0,1-.586-1.843V14.294H53.052V11.816h1.855V8.105H58.35v3.711H60.51v2.478H58.35v7.031a1.584,1.584,0,0,0,.208,1.019,2.285,2.285,0,0,0,1.27.2q.159,0,.336-.006T60.51,22.522Z" transform="translate(-5118.433 6252.079)" fill="#fff"/>
    <path id="Path_5690" data-name="Path 5690" d="M321.9,210.339a11.515,11.515,0,0,0-22.831,0,11.515,11.515,0,0,0,0,22.83,11.515,11.515,0,0,0,22.831,0,11.515,11.515,0,0,0,0-22.831Zm-19.568.03a8.286,8.286,0,0,1,16.306,0A11.546,11.546,0,0,0,309,220c-.113-.02-.225-.043-.336-.068a8.276,8.276,0,0,1-6.335-9.567ZM299.1,229.908a8.286,8.286,0,0,1,0-16.306,11.547,11.547,0,0,0,9.635,9.635q-.031.169-.068.336a8.277,8.277,0,0,1-9.567,6.335Zm19.538,3.232a8.286,8.286,0,0,1-16.306,0,11.546,11.546,0,0,0,9.635-9.635q.169.031.336.068a8.276,8.276,0,0,1,6.335,9.567Zm3.232-3.232a11.546,11.546,0,0,0-9.635-9.635c.02-.113.043-.225.068-.336a8.288,8.288,0,1,1,9.567,9.971Z" transform="translate(-5466.062 6033.825)" fill="#3a9842"/>
  </g>
</svg>
