<svg xmlns="http://www.w3.org/2000/svg" width="42.841" height="42.841" viewBox="0 0 42.841 42.841"><path id="Path_2891" data-name="Path 2891" d="M321.9,210.339a11.515,11.515,0,0,0-22.831,0,11.515,11.515,0,0,0,0,22.83,11.515,11.515,0,0,0,22.831,0,11.515,11.515,0,0,0,0-22.831Zm-19.568.03a8.286,8.286,0,0,1,16.306,0A11.546,11.546,0,0,0,309,220c-.113-.02-.225-.043-.336-.068a8.276,8.276,0,0,1-6.335-9.567ZM299.1,229.908a8.286,8.286,0,0,1,0-16.306,11.547,11.547,0,0,0,9.635,9.635q-.031.169-.068.336a8.277,8.277,0,0,1-9.567,6.335Zm19.538,3.232a8.286,8.286,0,0,1-16.306,0,11.546,11.546,0,0,0,9.635-9.635q.169.031.336.068a8.276,8.276,0,0,1,6.335,9.567Zm3.232-3.232a11.546,11.546,0,0,0-9.635-9.635c.02-.113.043-.225.068-.336a8.288,8.288,0,1,1,9.567,9.971Z" transform="translate(-289.062 -200.334)" fill="#fff"></path></svg>